<svg width="160" height="94" viewBox="0 0 160 94" fill="none" xmlns="http://www.w3.org/2000/svg">
<g clip-path="url(#clip0_208_10)">
<path fill-rule="evenodd" clip-rule="evenodd" d="M127.399 0.402992C127.349 0.531992 127.333 0.850992 127.363 1.11099L127.417 1.58299L131.125 1.62799L134.833 1.67299V0.919991V0.166992H131.161C128.149 0.166992 127.473 0.208992 127.399 0.402992ZM8.53497 5.42099C5.47097 6.08599 2.68997 8.296 1.25997 11.203C0.121971 13.514 0.152971 12.895 0.203971 32.385L0.249969 49.917L0.696967 51.139C2.50697 56.096 6.07497 58.39 12 58.408L15.083 58.417L15.135 57.792L15.187 57.167H12.957C9.31897 57.167 7.71097 56.688 6.03797 55.108C3.82497 53.018 3.67197 52.271 3.66897 43.546L3.66697 36.675L4.20797 36.4C6.42097 35.274 16.454 29.639 17.277 29.06C19.238 27.68 20.853 25.283 21.417 22.917C21.709 21.69 21.759 14.967 21.486 13.633C20.326 7.965 14.33 4.16199 8.53497 5.42099ZM25.667 26.819C25.667 51.094 25.615 49.971 26.856 52.5C28.732 56.324 32.243 58.385 36.917 58.406L39.25 58.417L39.3 57.814L39.351 57.212L37.217 57.127C33.434 56.978 31.3 55.724 29.94 52.854L29.417 51.75L29.373 28.458L29.329 5.16699H27.498H25.667V26.819ZM33.292 16.708C33.269 23.056 33.254 30.95 33.258 34.25L33.266 40.25L33.729 41.583C36.194 48.692 44.439 51.41 50.359 47.065L51.176 46.464L51.13 56.857L51.083 67.25L50.515 68.412C49.161 71.183 47.131 72.379 43.625 72.472L41.333 72.532V73.266V74L42.875 73.999C48.2 73.994 52.021 71.72 53.921 67.424C54.87 65.277 54.833 66.603 54.833 34.59V5.16699H53.003H51.172L51.128 23.792L51.083 42.417L50.567 43.5C47.714 49.487 39.113 48.967 37.163 42.691C36.843 41.663 36.833 41.086 36.833 23.399V5.16699H35.083H33.333L33.292 16.708ZM58.833 31.824V58.5H60.583H62.333V32.5V6.49999H67.215C74.359 6.49999 76.103 7.18499 77.8 10.656L78.417 11.917L78.461 35.214L78.506 58.511L80.295 58.464L82.083 58.417V36.417C82.083 12.148 82.149 13.659 80.993 11.25C79.953 9.08299 78.328 7.41199 76.221 6.34599C74.059 5.25099 74.284 5.27699 66.208 5.20899L58.833 5.14799V31.824ZM85.667 5.83299V6.49999H89.325C95.605 6.49999 96.976 7.37599 97.136 11.492C97.224 13.753 97.299 13.496 90.957 32.5L85.255 49.583L85.253 51.583C85.25 53.875 85.568 54.836 86.772 56.169C88.5 58.081 89.58 58.366 95.458 58.46L100.167 58.534V57.777V57.021L95.958 56.969C90.734 56.904 89.899 56.567 89.09 54.195C88.175 51.509 88.2 51.409 94.838 31.417C101.587 11.089 101.473 11.582 100.076 8.78199C98.604 5.83099 96.776 5.16699 90.136 5.16699H85.667V5.83299ZM102.167 5.81999V6.49999H105.89C111.002 6.49999 111.989 6.82899 112.985 8.86799C114.35 11.664 114.351 11.659 107.464 32.333L101.607 49.917L101.596 51.417C101.571 54.78 103.126 57.036 106.159 58.033C107.146 58.358 107.699 58.399 111.958 58.461L116.667 58.531V57.765V57L112.625 56.987C108.514 56.974 108.143 56.927 107.082 56.28C105.453 55.286 104.737 52.285 105.424 49.333C105.562 48.737 108.237 40.563 111.367 31.167L117.059 14.083L117.131 12.385C117.276 8.99999 115.908 6.79799 112.957 5.66699C111.962 5.28499 111.703 5.26499 107.042 5.20399L102.167 5.13999V5.81999ZM128.75 5.40099C125.086 6.24499 122.208 8.84999 120.857 12.545L120.417 13.75L120.369 31.167C120.316 50.571 120.293 50.118 121.437 52.396C124.974 59.445 134.669 60.592 139.462 54.528L140.102 53.719L140.843 54.578C146.359 60.977 156.23 59.239 159.269 51.333L159.75 50.083L159.8 32.417C159.853 13.909 159.844 13.64 159.12 11.917C157.272 7.51599 153.518 5.17699 148.292 5.16999L146.333 5.16699V5.83299V6.49999H147.992C150.892 6.49999 152.57 7.08699 154.166 8.65899C156.209 10.672 156.329 11.295 156.331 19.917L156.333 26.917L152.458 29.071C150.327 30.256 147.421 31.862 146 32.639C139.417 36.24 138.512 37.869 138.349 46.417L138.25 51.583L137.635 52.872C135.423 57.503 129.685 58.521 126.071 54.924C123.989 52.851 123.836 52.061 123.835 43.326L123.833 36.735L129.542 33.59C132.681 31.86 135.744 30.161 136.347 29.815C138.955 28.317 140.838 25.876 141.572 23.043C141.946 21.601 141.946 14.74 141.572 13.274C140.162 7.74499 134.271 4.12799 128.75 5.40099ZM12.367 6.688C15.136 7.276 17.391 9.53 17.979 12.3C18.094 12.843 18.167 15.123 18.167 18.223C18.167 26.826 18.217 26.749 9.53397 31.543C6.42197 33.261 3.82897 34.667 3.77097 34.667C3.51297 34.667 3.66097 13.343 3.92597 12.173C4.79597 8.34899 8.58697 5.885 12.367 6.688ZM132.75 6.72899C135.47 7.46199 137.429 9.38199 138.087 11.96C138.311 12.837 138.345 13.9 138.302 18.627L138.25 24.25L137.649 25.509C136.65 27.6 136.121 28.002 129.717 31.542C126.608 33.26 124.012 34.667 123.948 34.667C123.756 34.667 123.816 13.874 124.011 12.67C124.683 8.52599 128.867 5.68199 132.75 6.72899ZM156.331 39.875C156.33 48.423 156.282 50.928 156.106 51.583C154.236 58.576 144.784 58.987 142.29 52.184C141.871 51.044 141.657 42.742 141.983 40.295C142.342 37.598 143.632 35.88 146.466 34.321C147.355 33.832 149.883 32.435 152.083 31.217C154.283 29.998 156.14 29.001 156.208 29.001C156.277 29 156.332 33.894 156.331 39.875ZM81.177 68.208C80.916 68.781 80.207 70.328 79.601 71.646C78.995 72.963 78.5 74.069 78.5 74.104C78.5 74.539 79.861 74.089 80.073 73.583L80.316 73H81.828H83.339L83.617 73.583C83.936 74.252 85.339 74.529 85.093 73.875C84.499 72.299 82.034 67.173 81.868 67.17C81.75 67.168 81.439 67.635 81.177 68.208ZM87.778 67.278C87.717 67.339 87.667 68.914 87.667 70.778V74.167H89.39C93.453 74.167 95.294 70.415 92.401 68.031C91.529 67.312 88.274 66.782 87.778 67.278ZM95.5 67.32C95.5 67.613 98.612 74.232 98.775 74.286C98.924 74.336 101.928 68.087 102.037 67.5C102.072 67.313 101.921 67.25 101.44 67.25H100.796L99.856 69.372C99.34 70.539 98.873 71.496 98.819 71.497C98.765 71.499 98.284 70.525 97.75 69.333L96.78 67.167H96.14C95.788 67.167 95.5 67.236 95.5 67.32ZM106.178 67.542C106.097 67.748 105.387 69.294 104.599 70.977C102.916 74.573 103.012 74.167 103.842 74.167C104.456 74.167 104.539 74.114 104.761 73.583L105.004 73H106.552H108.1L108.311 73.583C108.503 74.115 108.579 74.167 109.177 74.167C110.01 74.167 110.084 74.473 108.295 70.544C106.786 67.23 106.474 66.787 106.178 67.542ZM112.333 70.667V74.167H112.912H113.49L113.537 71.964L113.583 69.761L115.661 72.049C116.803 73.308 117.816 74.311 117.911 74.28C118.022 74.243 118.083 72.992 118.083 70.736V67.25H117.5H116.917L116.87 69.304C116.844 70.433 116.765 71.333 116.693 71.304C116.622 71.274 115.71 70.331 114.665 69.208C112.181 66.537 112.333 66.442 112.333 70.667ZM123.268 67.407C120.913 68.446 120.411 71.733 122.354 73.395C123.684 74.534 125.597 74.618 126.791 73.59L127.25 73.195L126.857 72.776L126.464 72.357L125.808 72.7C123.364 73.973 121.256 70.562 123.43 68.852C124.12 68.31 124.883 68.241 125.704 68.647L126.412 68.997L126.831 68.573C127.748 67.643 124.867 66.701 123.268 67.407ZM130 70.667V74.167H132.167H134.333V73.583V73H132.75H131.167V72.174V71.347L132.458 71.299L133.75 71.25L133.802 70.625L133.853 70H132.501H131.148L131.199 69.208L131.25 68.417L132.792 68.369L134.333 68.321V67.744V67.167H132.167H130V70.667ZM91.296 68.765C93.32 70.091 92.269 73 89.766 73H89V70.644V68.287L89.955 68.4C90.48 68.461 91.084 68.626 91.296 68.765ZM82.373 70.792L82.788 71.75L82.311 71.802C82.048 71.831 81.618 71.831 81.356 71.802L80.878 71.75L81.294 70.792C81.522 70.265 81.765 69.833 81.833 69.833C81.902 69.833 82.145 70.265 82.373 70.792ZM107.071 70.77C107.307 71.285 107.5 71.735 107.5 71.77C107.5 71.805 107.056 71.833 106.514 71.833H105.528L105.97 70.833C106.511 69.608 106.539 69.607 107.071 70.77ZM63.875 88.3C63.308 88.572 63.162 88.833 63.575 88.833C63.91 88.833 64.667 88.475 64.667 88.316C64.667 88.052 64.403 88.047 63.875 88.3ZM128.708 88.3C128.142 88.572 127.995 88.833 128.409 88.833C128.743 88.833 129.5 88.475 129.5 88.316C129.5 88.052 129.236 88.047 128.708 88.3ZM1.17397 89.974C-0.699028 91.756 1.86297 94.974 3.85697 93.345C4.45097 92.86 4.07797 92.582 3.27997 92.915C1.70397 93.574 0.422965 91.685 1.58997 90.425C2.01797 89.963 2.31397 89.931 3.73197 90.192C4.25497 90.288 4.22297 89.871 3.68597 89.593C2.77397 89.122 1.93597 89.249 1.17397 89.974ZM8.83296 91.5V93.667H10.167C11.903 93.667 12.151 93.214 10.458 93.133L9.41698 93.083L9.36497 92.458L9.31297 91.833H10.24C11.056 91.833 11.167 91.793 11.167 91.5C11.167 91.207 11.056 91.167 10.25 91.167H9.33296V90.591V90.016L10.373 89.966C12.139 89.882 11.971 89.333 10.179 89.333H8.83296V91.5ZM16.167 91.5C16.167 93.556 16.184 93.667 16.5 93.667C16.809 93.667 16.833 93.556 16.833 92.146V90.626L18.111 92.146C19.719 94.058 19.667 94.08 19.667 91.5C19.667 89.685 19.626 89.333 19.417 89.333C19.214 89.333 19.167 89.602 19.167 90.75C19.167 91.529 19.1 92.167 19.018 92.167C18.936 92.167 18.328 91.529 17.667 90.75C16.137 88.949 16.167 88.934 16.167 91.5ZM24.333 89.667C24.333 89.938 24.444 90 24.926 90H25.519L25.487 91.792C25.461 93.331 25.495 93.591 25.728 93.637C25.966 93.684 26 93.463 26 91.846V90H26.583C27.056 90 27.167 89.937 27.167 89.667C27.167 89.359 27.056 89.333 25.75 89.333C24.444 89.333 24.333 89.359 24.333 89.667ZM31.667 91.5C31.667 93.556 31.684 93.667 32 93.667C32.289 93.667 32.333 93.556 32.333 92.833C32.333 92.03 32.35 92 32.805 92C33.208 92 33.333 92.122 33.667 92.833C33.972 93.486 34.142 93.667 34.448 93.667H34.839L34.41 92.82L33.981 91.973L34.407 91.578C35.51 90.555 34.641 89.333 32.809 89.333H31.667V91.5ZM39.98 89.98C37.983 91.978 40.854 95.027 42.936 93.119C44.454 91.728 43.456 89.336 41.355 89.334C40.732 89.333 40.535 89.426 39.98 89.98ZM53.679 91.423C53.47 92.577 53.341 93.563 53.392 93.614C53.671 93.893 53.969 93.439 54.078 92.57C54.291 90.86 54.382 90.83 54.947 92.275C55.585 93.909 55.736 93.906 56.376 92.25C56.95 90.766 57.014 90.804 57.259 92.767C57.351 93.497 57.431 93.667 57.686 93.667C58.075 93.667 58.076 93.722 57.636 91.315C57.208 88.973 57.118 88.943 56.333 90.885C55.621 92.649 55.681 92.649 54.985 90.888C54.21 88.931 54.124 88.966 53.679 91.423ZM62.667 91.5V93.667H64C65.074 93.667 65.333 93.618 65.333 93.417C65.333 93.222 65.111 93.167 64.333 93.167H63.333V92.5V91.833H64.167C64.889 91.833 65 91.789 65 91.5C65 91.211 64.889 91.167 64.167 91.167H63.333V90.583V90H64.333C65.222 90 65.333 89.963 65.333 89.667C65.333 89.361 65.222 89.333 64 89.333H62.667V91.5ZM70.111 89.444C70.05 89.506 70 90.489 70 91.629V93.703L71.267 93.639C74.678 93.467 74.537 89.333 71.119 89.333C70.626 89.333 70.172 89.383 70.111 89.444ZM78.5 91.5C78.5 93.556 78.517 93.667 78.833 93.667C79.15 93.667 79.167 93.556 79.167 91.5C79.167 89.444 79.15 89.333 78.833 89.333C78.517 89.333 78.5 89.444 78.5 91.5ZM84.698 89.671C82.859 90.793 83.697 93.656 85.867 93.664C86.597 93.667 87.333 93.367 87.333 93.066C87.333 92.74 87.014 92.615 86.747 92.836C85.43 93.929 83.64 91.687 84.825 90.426C85.265 89.957 86.424 89.824 86.8 90.2C86.956 90.356 87.046 90.353 87.208 90.188C87.883 89.502 85.709 89.055 84.698 89.671ZM92.48 89.98C91.856 90.605 91.729 90.983 91.832 91.917C92.053 93.934 94.963 94.345 95.92 92.494C97.047 90.314 94.216 88.245 92.48 89.98ZM106.167 91.5V93.667H107.5C108.574 93.667 108.833 93.618 108.833 93.417C108.833 93.222 108.611 93.167 107.833 93.167H106.833V92.5V91.833H107.667C108.389 91.833 108.5 91.789 108.5 91.5C108.5 91.211 108.389 91.167 107.667 91.167H106.833V90.583V90H107.833C108.722 90 108.833 89.963 108.833 89.667C108.833 89.361 108.722 89.333 107.5 89.333H106.167V91.5ZM113.5 89.667C112.784 90.383 113.111 91.112 114.486 91.869C115.526 92.441 115.211 93.452 114.124 93.029C113.341 92.724 113.276 92.722 113.212 93.012C113.072 93.643 114.93 93.904 115.5 93.333C116.222 92.611 115.887 91.859 114.542 91.183C113.997 90.909 113.833 90.732 113.833 90.416C113.833 89.921 114.446 89.703 115.002 90.001C115.529 90.283 115.892 89.915 115.426 89.572C114.946 89.217 113.898 89.269 113.5 89.667ZM120.167 89.667C120.167 89.926 120.278 90 120.667 90H121.167V91.833C121.167 93.556 121.187 93.667 121.5 93.667C121.813 93.667 121.833 93.556 121.833 91.833V90H122.417C122.889 90 123 89.937 123 89.667C123 89.359 122.889 89.333 121.583 89.333C120.278 89.333 120.167 89.359 120.167 89.667ZM127.5 91.5V93.667H128.833C129.907 93.667 130.167 93.618 130.167 93.417C130.167 93.222 129.944 93.167 129.167 93.167H128.167V92.5V91.833H129C129.722 91.833 129.833 91.789 129.833 91.5C129.833 91.211 129.722 91.167 129 91.167H128.167V90.583V90H129.167C130.056 90 130.167 89.963 130.167 89.667C130.167 89.361 130.056 89.333 128.833 89.333H127.5V91.5ZM134.5 89.667C134.5 89.937 134.611 90 135.083 90H135.667V91.833C135.667 93.352 135.71 93.667 135.917 93.667C136.124 93.667 136.167 93.352 136.167 91.833V90H136.75C137.222 90 137.333 89.937 137.333 89.667C137.333 89.359 137.222 89.333 135.917 89.333C134.611 89.333 134.5 89.359 134.5 89.667ZM141.944 89.444C141.624 89.764 141.83 93.667 142.167 93.667C142.483 93.667 142.5 93.556 142.5 91.5C142.5 89.385 142.394 88.994 141.944 89.444ZM148.237 89.648C146.894 90.466 146.873 92.521 148.198 93.329C149.189 93.933 151.441 93.537 150.779 92.874C150.565 92.66 150.47 92.651 150.263 92.823C148.933 93.927 147.13 91.698 148.325 90.426C148.766 89.956 149.924 89.824 150.301 90.201C150.458 90.358 150.561 90.343 150.772 90.133C151.423 89.482 149.205 89.057 148.237 89.648ZM156.216 89.66C154.371 90.785 155.146 93.667 157.294 93.667C158.519 93.667 159.123 93.17 159.558 91.804C160.058 90.233 157.728 88.738 156.216 89.66ZM42.075 90.069C43.621 90.715 43.183 93.076 41.518 93.076C39.74 93.076 39.281 90.777 40.917 90.064C41.539 89.793 41.414 89.793 42.075 90.069ZM94.575 90.069C96.132 90.72 95.681 93.076 94.001 93.076C92.225 93.076 91.769 90.665 93.417 89.991C93.883 89.8 93.941 89.804 94.575 90.069ZM158.129 90.167C159.559 91.039 158.982 93.076 157.306 93.076C155.675 93.076 155.218 90.73 156.721 90.076C157.418 89.773 157.49 89.778 158.129 90.167ZM33.998 90.248C34.303 90.615 34.068 91.31 33.598 91.428C32.722 91.648 32.421 91.472 32.365 90.708L32.314 90H33.053C33.504 90 33.873 90.097 33.998 90.248ZM72.591 90.409C73.59 91.408 72.873 93 71.424 93H70.667V91.5V90H71.424C72.006 90 72.277 90.095 72.591 90.409Z" fill="#9C8C7C"/>
</g>
<defs>
<clipPath id="clip0_208_10">
<rect width="160" height="94" fill="white"/>
</clipPath>
</defs>
</svg>
