<svg width="102" height="102" viewBox="0 0 102 102" fill="none" xmlns="http://www.w3.org/2000/svg">
<rect width="102" height="102" rx="51" fill="white"/>
<path fill-rule="evenodd" clip-rule="evenodd" d="M36.861 14.692C31.247 15.496 26.626 19.506 24.885 25.083L24.4171 26.583L24.3651 49.75C24.3071 76.247 24.255 75.253 25.851 78.394C30.661 87.859 43.721 89.3009 50.181 81.0809L51.028 80.004L51.774 80.9969C58.809 90.3549 73.933 87.197 77.222 75.682L77.583 74.417L77.634 51.25C77.688 26.831 77.686 26.763 76.927 24.529C74.772 18.197 69.792 14.78 62.375 14.545L59.5 14.455V15.477V16.5H62.179C66.925 16.5 69.858 18.088 71.746 21.68C72.815 23.715 72.828 23.87 72.831 34.442L72.833 43.968L67.625 46.847C61.426 50.275 62.096 49.9059 58.583 51.8309C52.919 54.9359 50.798 57.14 49.317 61.463L48.762 63.0829L48.659 69.75C48.574 75.207 48.506 76.589 48.282 77.367C45.56 86.827 32.7951 87.064 29.5441 77.716C29.2991 77.011 29.26 75.742 29.215 67L29.164 57.0829L32.946 55C35.027 53.854 37.896 52.274 39.323 51.489C40.749 50.704 42.3671 49.813 42.9171 49.509C43.4671 49.205 44.404 48.69 45 48.365C49.138 46.104 51.517 43.339 52.844 39.25C53.301 37.84 53.539 28.333 53.164 26.417C51.672 18.783 44.469 13.603 36.861 14.692ZM41.326 16.746C44.906 17.699 47.7731 20.802 48.4191 24.423C48.5951 25.411 48.657 27.375 48.661 32.11C48.671 43.745 48.672 43.744 37.333 49.983C33.438 52.127 30.004 54.028 29.703 54.207L29.157 54.533L29.203 39.308L29.25 24.083L29.68 22.98C31.573 18.12 36.526 15.469 41.326 16.746ZM72.797 61.875L72.75 77.0829L72.267 78.25C68.564 87.184 56.266 86.547 53.704 77.289C53.268 75.711 53.273 62.281 53.711 60.667C54.64 57.239 55.99 55.869 61.333 52.927C63.487 51.741 66.9001 49.852 68.9171 48.728C70.9331 47.605 72.642 46.6809 72.713 46.6759C72.785 46.6709 72.822 53.51 72.797 61.875Z" fill="#393736"/>
</svg>
