<svg width="1106" height="292" viewBox="0 0 1106 292" fill="none" xmlns="http://www.w3.org/2000/svg">
<path d="M20.1301 224.19V21.1499H149.85V48.9269H49.5991V105.891H132.93V133.668H49.5991V196.413H149.85V224.19H20.1301ZM175.252 224.19V16.9199H204.721V224.19H175.252ZM256.369 291.87L285.838 211.641L286.261 235.329L219.85 71.9099H250.588L300.22 198.105H291.196L338.572 71.9099H368.464L284.428 291.87H256.369ZM486.151 224.19V149.319C486.151 143.397 485.634 137.334 484.6 131.13C483.66 124.832 481.78 119.004 478.96 113.646C476.234 108.288 472.333 103.964 467.257 100.674C462.275 97.3839 455.742 95.7389 447.658 95.7389C442.394 95.7389 437.412 96.6319 432.712 98.4179C428.012 100.11 423.876 102.883 420.304 106.737C416.826 110.591 414.053 115.667 411.985 121.965C410.011 128.263 409.024 135.924 409.024 144.948L390.694 138.039C390.694 124.221 393.279 112.048 398.449 101.52C403.619 90.8979 411.045 82.6259 420.727 76.7039C430.409 70.7819 442.112 67.8209 455.836 67.8209C466.364 67.8209 475.2 69.5129 482.344 72.8969C489.488 76.2809 495.269 80.7459 499.687 86.2919C504.199 91.7439 507.63 97.7129 509.98 104.199C512.33 110.685 513.928 117.03 514.774 123.234C515.62 129.438 516.043 134.89 516.043 139.59V224.19H486.151ZM379.132 224.19V71.9099H405.499V115.902H409.024V224.19H379.132ZM527.389 224.19V219.537L613.822 98.2769H535.285V71.9099H660.634V76.7039L574.342 197.823H656.404V224.19H527.389ZM666.197 224.19V219.537L752.63 98.2769H674.093V71.9099H799.442V76.7039L713.15 197.823H795.212V224.19H666.197ZM891.219 49.3499H868.095L888.258 -6.33001e-05H911.382L891.219 49.3499ZM878.106 228.42C862.972 228.42 849.671 225.13 838.203 218.55C826.829 211.876 817.946 202.617 811.554 190.773C805.256 178.835 802.107 165.017 802.107 149.319C802.107 132.681 805.209 118.252 811.413 106.032C817.711 93.8119 826.453 84.3649 837.639 77.6909C848.825 71.0169 861.844 67.6799 876.696 67.6799C892.206 67.6799 905.413 71.2989 916.317 78.5369C927.221 85.6809 935.352 95.8799 940.71 109.134C946.162 122.388 948.324 138.133 947.196 156.369H917.727V145.653C917.539 127.981 914.155 114.915 907.575 106.455C901.089 97.9949 891.172 93.7649 877.824 93.7649C863.066 93.7649 851.974 98.4179 844.548 107.724C837.122 117.03 833.409 130.472 833.409 148.05C833.409 164.782 837.122 177.754 844.548 186.966C851.974 196.084 862.69 200.643 876.696 200.643C885.908 200.643 893.851 198.575 900.525 194.439C907.293 190.209 912.557 184.193 916.317 176.391L945.222 185.556C939.3 199.186 930.323 209.761 918.291 217.281C906.259 224.707 892.864 228.42 878.106 228.42ZM823.821 156.369V133.386H932.532V156.369H823.821ZM1007.8 228.42C996.522 228.42 987.075 226.352 979.461 222.216C971.847 217.986 966.066 212.44 962.118 205.578C958.264 198.622 956.337 191.008 956.337 182.736C956.337 175.028 957.7 168.26 960.426 162.432C963.152 156.604 967.194 151.669 972.552 147.627C977.91 143.491 984.49 140.154 992.292 137.616C999.06 135.642 1006.72 133.903 1015.28 132.399C1023.83 130.895 1032.81 129.485 1042.21 128.169C1051.7 126.853 1061.1 125.537 1070.41 124.221L1059.69 130.143C1059.88 118.205 1057.34 109.369 1052.08 103.635C1046.91 97.8069 1037.98 94.8929 1025.29 94.8929C1017.3 94.8929 1009.96 96.7729 1003.29 100.533C996.616 104.199 991.963 110.309 989.331 118.863L961.836 110.403C965.596 97.3369 972.74 86.9499 983.268 79.2419C993.89 71.5339 1007.99 67.6799 1025.57 67.6799C1039.2 67.6799 1051.04 70.0299 1061.1 74.7299C1071.25 79.3359 1078.68 86.6679 1083.38 96.7259C1085.82 101.708 1087.33 106.972 1087.89 112.518C1088.45 118.064 1088.74 124.033 1088.74 130.425V224.19H1062.65V189.363L1067.73 193.875C1061.43 205.531 1053.39 214.226 1043.62 219.96C1033.93 225.6 1022 228.42 1007.8 228.42ZM1013.02 204.309C1021.39 204.309 1028.58 202.852 1034.59 199.938C1040.61 196.93 1045.45 193.123 1049.12 188.517C1052.78 183.911 1055.18 179.117 1056.31 174.135C1057.9 169.623 1058.8 164.547 1058.99 158.907C1059.27 153.267 1059.41 148.755 1059.41 145.371L1069 148.896C1059.69 150.306 1051.23 151.575 1043.62 152.703C1036 153.831 1029.09 154.959 1022.89 156.087C1016.78 157.121 1011.33 158.39 1006.53 159.894C1002.49 161.304 998.872 162.996 995.676 164.97C992.574 166.944 990.083 169.341 988.203 172.161C986.417 174.981 985.524 178.412 985.524 182.454C985.524 186.402 986.511 190.068 988.485 193.452C990.459 196.742 993.467 199.374 997.509 201.348C1001.55 203.322 1006.72 204.309 1013.02 204.309Z" fill="url(#paint0_linear_64_11)"/>
<defs>
<linearGradient id="paint0_linear_64_11" x1="553" y1="21.1899" x2="553" y2="224.19" gradientUnits="userSpaceOnUse">
<stop stop-color="#141313" stop-opacity="0.8"/>
<stop offset="1" stop-color="#141313" stop-opacity="0.1"/>
</linearGradient>
</defs>
</svg>
